name processed_emg_signals
nRows=56
nColumns=7
 
endheader
time	LGLTMED	LRF	LADDLONG	LST	LTA	LGM
0.677	0.0511035417886377	0.0305400068992132	0.0418272735262542	0.3150599958607749	0.2414785871737719	0.1082768091890609
0.678	0.0501694135948839	0.0294047071585385	0.0408446026248493	0.3270131051032327	0.24557582010672	0.1138674702142038
0.679	0.0492598839606048	0.0283283762761496	0.03993242596268	0.3391046257773843	0.2497052502865017	0.1195925439476065
0.68	0.0483771607577902	0.0273116165121825	0.0390912815961868	0.3513271968675827	0.2538669423914121	0.1254504284669255
0.681	0.0475234955518235	0.0263550205741332	0.0383216989299741	0.3636732047501399	0.2580609258943935	0.131439352011672
0.682	0.0467011823770267	0.0254591718428681	0.037624199050833	0.3761347891471607	0.2622871921639746	0.137557371952312
0.683	0.045912556430203	0.024624644557686	0.03699929500303	0.3887038495832278	0.2665456916366887	0.1438023739934564
0.684	0.0451599926816449	0.0238520039578964	0.0364474920034708	0.4013720523434658	0.2708363310639032	0.1501720716165374
0.685	0.0444459044031049	0.0231418063786222	0.0359692875951659	0.414130837930211	0.2751589708351555	0.1566640057672366
0.686	0.0437727416121532	0.0224945992985719	0.0355651717375659	0.4269714290140073	0.2795134223792231	0.1632755447926798
0.687	0.043142989432635	0.021910921337834	0.035235626832629	0.4398848388733475	0.2838994456435774	0.1700038846332067
0.6880000000000001	0.0425591663706996	0.0213913022039126	0.0349811276856157	0.4528618803160131	0.2883167466523047	0.1768460492732753
0.6890000000000001	0.0420238225061854	0.0209362625845405	0.034802141399703	0.4658931750735819	0.2927649751423575	0.1837988914557727
0.6900000000000001	0.0415395375990437	0.020546313985988	0.0346991272039798	0.4789691636590043	0.2972437222780974	0.1908590936638576
0.6910000000000001	0.0411089191107971	0.0202219585159217	0.0346725362141104	0.4920801156757389	0.3017525184447612	0.1980231693741495
0.6920000000000001	0.0407346001410369	0.0199636886099576	0.0347228111254766	0.5052161405653035	0.306290831122557	0.2052874645846345
0.6930000000000001	0.0404192372792761	0.0197719867013427	0.0348503858385724	0.5183671987785031	0.3108580628444126	0.2126481596201302
0.6940000000000001	0.0401655083725167	0.0196473248333555	0.0350556850166834	0.5315231133542248	0.3154535492417134	0.2201012712176678
0.6950000000000001	0.0399761102091431	0.0195901642142807	0.0353391235761865	0.5446735818880548	0.3200765571831873	0.2276426548935829
0.6960000000000001	0.0398537561198642	0.0196009547152263	0.0357011061101385	0.557808188871652	0.3247262830126201	0.2352680075937818
0.6970000000000001	0.0398011734964521	0.0196801343114067	0.0361420262460047	0.5709164183822276	0.3294018508910521	0.2429728706283607
0.6980000000000001	0.0398211012291264	0.0198281284679328	0.0366622659388705	0.5839876671000729	0.3341023112488719	0.2507526328913254
0.6990000000000001	0.0399162870635769	0.0200453494714122	0.0372621947015577	0.5970112576305092	0.338826639352745	0.2586025343660084
0.7000000000000001	0.0400894848786644	0.0203321957090295	0.0379421687736903	0.6099764521051173	0.3435737339918877	0.266517669916227
0.7010000000000001	0.0403434518861552	0.020689050896815	0.0387025302316536	0.6228724660352765	0.3483424162881187	0.2744929933629793
0.7020000000000001	0.0406809457538916	0.021116283259149	0.0395436060417666	0.6356884823894822	0.3531314286344194	0.2825233218457389
0.7030000000000001	0.0411047216541701	0.0216142446614682	0.0404657070591717	0.6484136658641912	0.3579394337673661	0.2906033404668013
0.704	0.0416175292393726	0.0221832696984284	0.0414691269748046	0.6610371773163944	0.3627650139795408	0.2987276072162524
0.705	0.0422221095471735	0.0228236747396445	0.042554141213113	0.6735481883251108	0.3676066704784448	0.3068905581743488
0.706	0.0429211918382309	0.0235357569352638	0.0437210057830433	0.6859358958477879	0.3724628228984004	0.3150865129873206
0.707	0.0437174903693332	0.0243197931835082	0.0449699560847476	0.6981895369368933	0.3773318089715101	0.3233096806120621
0.708	0.0446137011054193	0.0251760390624755	0.0463012056746388	0.7102984034809886	0.382211884363088	0.3315541653247789
0.709	0.0456124983739091	0.0261047277283742	0.0477149449911057	0.7222518569340699	0.3871012226764027	0.3398139729884318
0.71	0.0467165314650287	0.027106068782527	0.049211340043547	0.7340393429970166	0.3919979156310651	0.3480830175738366
0.711	0.0479284211817291	0.028180247109451	0.0507905310669393	0.74565040621604	0.3968999734189873	0.3563551279290075
0.712	0.0492507563431792	0.0293274216884335	0.0524526311444074	0.7570747044655592	0.4018053252415617	0.3646240547909468
0.713	0.050686090246004	0.0305477243810068	0.0541977248001818	0.7683020232862061	0.4067118200314405	0.3728834780334889
0.714	0.0522369370879449	0.0318412586967583	0.056025866565162	0.7793222900523794	0.4116172273621102	0.3811270141441483
0.715	0.0539057683587422	0.0332080985399332	0.0579370795176923	0.7901255879465989	0.416519238548171	0.3893482239224136
0.716	0.0556950092035412	0.0346482869394509	0.0599313538017026	0.8007021697201074	0.4214154679389027	0.3975406203916552
0.717	0.057607034763871	0.0361618347650627	0.0620086451247122	0.811042471220541	0.4263034544070408	0.4056976769162861
0.718	0.059644166501441	0.0377487194324549	0.0641688732377501	0.8211371246689373	0.4311806630340102	0.4138128355154056
0.719	0.0618086685099418	0.0394088836003615	0.0664119203994941	0.8309769716692018	0.4360444869920141	0.4218795153634111
0.72	0.0641027438198588	0.0411422338627347	0.0687376298269656	0.8405530759335761	0.440892249622663	0.4298911214675014
0.721	0.0665285307015728	0.042948639439078	0.0711458041350603	0.8498567357079438	0.4457212067112794	0.4378410535110629
0.722	0.0690880989718481	0.0448279308662119	0.0736362037679615	0.8588794958809433	0.4505285489556042	0.4457227148513036
0.723	0.0717834463090355	0.0467798986946257	0.0762085454252262	0.8676131597608103	0.4553114046276522	0.4535295216586726
0.724	0.0746164945823179	0.0488042921927995	0.0788625004863314	0.8760498005033108	0.4600668424273872	0.4612549121850101
0.725	0.0775890862005877	0.0509008180628763	0.0815976934372357	0.8841817721735701	0.4647918745267044	0.4688923561467114
0.726	0.0807029804866533	0.0530691391711324	0.0844137003031036	0.8920017204247197	0.4694834598018528	0.4764353642089122
0.727	0.0839598500827714	0.0553088732967923	0.0873100470913707	0.8995025927774519	0.4741385072521883	0.4838774975564927
0.728	0.0873612773936285	0.0576195919027644	0.0902862082494718	0.9066776484865628	0.4787538796030283	0.4912123775379636
0.729	0.0909087510732268	0.0600008189317729	0.0933416051416957	0.9135204679827678	0.4833263970902163	0.4984336953687177
0.73	0.0946036625621807	0.0624520296313896	0.0964756045496451	0.9200249618809512	0.4878528414234494	0.5055352218808582
0.731	0.0984473026821884	0.0649726494112428	0.0996875172008917	0.9261853795487348	0.4923299599250596	0.5125108173075654
0.732	0.1024408582944807	0.0675620527357634	0.1029765963303643	0.9319963172312788	0.4967544698406801	0.5193544410908174
